<?xml version="1.0" standalone="no"?><!DOCTYPE svg PUBLIC "-//W3C//DTD SVG 1.1//EN" "http://www.w3.org/Graphics/SVG/1.1/DTD/svg11.dtd"><svg t="1701310064678" class="icon" viewBox="0 0 1024 1024" version="1.1" xmlns="http://www.w3.org/2000/svg" p-id="4227" width="32" height="32" xmlns:xlink="http://www.w3.org/1999/xlink"><path d="M930.688 487.338667s3.584 0.469333 6.314667 1.322666a32 32 0 0 1 5.973333 58.496c-4.906667 2.730667-15.530667 4.053333-15.530667 4.053334H96.554667s-3.584-0.085333-6.442667-0.682667a31.786667 31.786667 0 0 1-16.725333-9.301333 32.256 32.256 0 0 1 0-44.074667 32.213333 32.213333 0 0 1 7.637333-5.930667c4.906667-2.730667 15.530667-4.010667 15.530667-4.010666l834.133333 0.128z" p-id="4228" fill="#2c2c2c"></path><path d="M516.864 72.149333a32.042667 32.042667 0 0 1 25.685333 22.016 59.733333 59.733333 0 0 1 1.450667 9.6v830.848s-1.322667 10.666667-4.010667 15.530667a31.573333 31.573333 0 0 1-13.909333 13.226667 32.341333 32.341333 0 0 1-36.138667-5.546667 32.341333 32.341333 0 0 1-9.301333-16.768c-0.554667-2.816-0.64-6.442667-0.64-6.442667V103.765333s0.469333-6.4 1.450667-9.6a32.298667 32.298667 0 0 1 19.456-20.394666 34.816 34.816 0 0 1 12.714666-1.962667l3.242667 0.341333z" p-id="4229" fill="#2c2c2c"></path></svg>